<svg version="1.2" xmlns="http://www.w3.org/2000/svg" viewBox="0 0 1031 730" width="1031" height="730">
	<title>hero2-svg</title>
	<defs>
		<linearGradient id="g1" x1="804.1" y1="616.8" x2="804.1" y2="278.2" gradientUnits="userSpaceOnUse">
			<stop offset="0" stop-color="#808080" stop-opacity=".3"/>
			<stop offset=".5" stop-color="#808080" stop-opacity=".1"/>
			<stop offset="1" stop-color="#808080" stop-opacity=".1"/>
		</linearGradient>
		<linearGradient id="g2" x1="291.5" y1="692" x2="291.5" y2="296.8" gradientUnits="userSpaceOnUse">
			<stop offset="0" stop-color="#808080" stop-opacity=".3"/>
			<stop offset=".5" stop-color="#808080" stop-opacity=".1"/>
			<stop offset="1" stop-color="#808080" stop-opacity=".1"/>
		</linearGradient>
	</defs>
	<style>
		.s0 { opacity: .1;fill: #7858fe } 
		.s1 { fill: #7858fe } 
		.s2 { fill: none;stroke: #535461;stroke-width: 2 } 
		.s3 { opacity: .1;fill: #000000 } 
		.s4 { fill: #ffd037 } 
		.s5 { fill: #a8a8a8 } 
		.s6 { opacity: .2;fill: #000000 } 
		.s7 { fill: #e6e6f0 } 
		.s8 { fill: #fdc2cc } 
		.s9 { fill: #565171 } 
		.s10 { fill: #b45181 } 
		.s11 { fill: #000000 } 
		.s12 { fill: #f569bc } 
		.s13 { fill: #f7df1e } 
		.s14 { fill: url(#g1) } 
		.s15 { fill: #4f4d59 } 
		.s16 { fill: #c48c96 } 
		.s17 { fill: #714b4f } 
		.s18 { fill: #ba7855 } 
		.s19 { fill: #503f43 } 
		.s20 { fill: #e44d26 } 
		.s21 { fill: #f16529 } 
		.s22 { fill: #ebebeb } 
		.s23 { fill: #dadada } 
		.s24 { fill: #ffffff } 
		.s25 { fill: url(#g2) } 
		.s26 { fill: #264de4 } 
		.s27 { fill: #2965f1 } 
		.s28 { fill: #47465a } 
		.s29 { opacity: .3;fill: #ffffff } 
		.s30 { fill: #e1a0a7 } 
		.s31 { fill: #8f5a6a } 
	</style>
	<path id="Layer" class="s0" d="m814.7 626.3c-116.9 0-211.4-18.4-211.4-41.1 0-22.7 94.5-41.1 211.4-41.1 116.8 0 211.3 18.4 211.3 41.1 0 22.7-94.5 41.1-211.3 41.1z"/>
	<g id="Layer" style="opacity: .5">
		<path id="Layer" class="s1" d="m645.1 102.5c3.3-1.3 6.2-5.4 9.5-5.2 3.2 0.3 5.8 2.7 8.3 5.5q2.7 2.9 4.9 6.1 2.2 3.2 4 6.7 1.8 3.5 3.1 7.2 1.4 3.7 2.2 7.5c3 12.5 3.4 29.3-0.4 45.6-2.6 11.2-7 21.6-9 33-2.8 16-1.1 33-6.7 47-5.9 14.6-16.5 16.6-21.8 31.9-3.4 9.7-3.5 21.8-7.3 30.8-4.1 9.5-10.6 11.2-14.5 6.5-3.8-4.7-5.6-13.9-7.3-22.7q-0.4-1.6-0.7-3.3-0.2-1.6-0.4-3.2-0.2-1.7-0.3-3.4-0.1-1.6-0.1-3.3 0-1.6 0.1-3.3 0.1-1.7 0.3-3.3 0.2-1.7 0.4-3.3 0.2-1.7 0.5-3.3l4.8-33.4q0.2-1.4 0.4-2.8 0.1-1.4 0.3-2.8 0.1-1.3 0.2-2.7 0-1.4 0.1-2.8-0.1-1.1-0.2-2.1-0.1-1.1-0.2-2.1-0.1-1.1-0.3-2.1-0.2-1-0.5-2.1-0.4-2-1-4.1-0.5-2.1-1.2-4.1-0.6-2.1-1.3-4.1-0.8-2-1.6-4c-1.7-4.2-3.8-7.9-4.9-13q-0.5-2.3-0.8-4.6-0.2-2.4-0.1-4.7 0-2.4 0.3-4.7 0.4-2.3 1-4.6 0.5-2 1.3-4 0.9-1.9 2-3.7 1.1-1.8 2.4-3.5 1.4-1.6 3-3c3.3-3 6.7-5 9.8-9.3q0.8-1 1.4-2 0.6-1 1.1-2.1 0.5-1.1 0.9-2.3 0.4-1.1 0.6-2.3c2.6-11.8-5.2-19.4-1.8-30.8 1.7-5.7 5.2-7.8 8-8.6 3.9-1.1 7.7 0.4 11.5-1.1z"/>
		<path id="Layer" class="s2" d="m651.6 98.2c0 0-5.6 144.3-29.3 229.4"/>
		<path id="Layer" class="s2" d="m625.4 112.9c0 0 25.4 23.1 20.6 67"/>
		<path id="Layer" class="s2" d="m604.1 178.6c0 0 41.7 8.4 38.6 33.3"/>
		<path id="Layer" class="s2" d="m677.2 130c0 0-16.9 14.7-31.9 56.5"/>
		<path id="Layer" class="s2" d="m660.7 256.2c0 0-11.5 9-20.7-22.5"/>
		<path id="Layer" class="s2" d="m611.1 274.6c0 0 23.5-3.1 25.6-17.7"/>
	</g>
	<path id="Layer" class="s1" d="m713.9 6.7c6.7-1.5 12.2-7.3 19.1-6.5 6.6 0.7 12.4 4.6 17.8 9 13 10.2 25 23.5 32.6 42.2 7.7 18.7 10.4 43.5 4.7 67-4 16.3-11.8 31.1-14.7 47.6-4 23.1 1.6 48.6-8.4 68.4-10.5 20.8-32.1 22.5-41.4 44.4-5.8 13.8-4.6 31.6-11.4 44.5-7.2 13.5-20.6 15.1-29.1 7.8-8.6-7.3-13.4-21-17.9-34.3-2.1-6.1-4.3-12.4-4.8-19.6-0.4-6.2 0.4-12.8 1.2-19.3l5.9-48.7c0.7-5.5 1.4-11.1 0.8-16.3q-0.2-1.6-0.5-3.1-0.3-1.6-0.7-3.1-0.4-1.6-0.9-3.1-0.6-1.5-1.2-3-1.2-3.2-2.6-6.4-1.4-3.2-3-6.3-1.6-3.1-3.3-6.1-1.7-3-3.6-5.9c-4.1-6.3-8.7-12-11.8-19.7-3-7.7-4.3-18-1.3-27.3 3-9.7 9.7-16 16.2-20 6.5-4 13.4-6.6 19.4-12.5q1.3-1.2 2.4-2.7 1.1-1.4 2-2.9 1-1.6 1.6-3.2 0.7-1.7 1.1-3.4c4-17-13.1-29.3-7.5-45.6 2.9-8.3 9.9-11 15.7-11.9 7.8-1.1 15.9 1.6 23.6 0z"/>
	<path id="Layer" class="s2" d="m726.9 0.9c0 0 5.5 211.9-33.5 334.5"/>
	<path id="Layer" class="s2" d="m674.4 19.6c0 0 55.2 37 50.5 101.2"/>
	<path id="Layer" class="s2" d="m638.2 113.8c0 0 87.1 17.2 83.6 53.5"/>
	<path id="Layer" class="s2" d="m783.5 50.8c0 0-33.1 19.8-59.1 79.5"/>
	<path id="Layer" class="s2" d="m764.4 234.7c0 0-22.7 12-45.5-35.6"/>
	<path id="Layer" class="s2" d="m664 255.9c0 0 48.1-1.7 50.9-23"/>
	<path id="Layer" class="s1" d="m78.6 615.8c-15 0.4-33.5 31.1-33.5 31.1-4.1-10.3 6-24.3 18.3-40.8 12.2-16.5 3.9-27.5 3.9-27.5 16.5 18.5 26.4 36.7 11.3 37.2z"/>
	<path id="Layer" class="s3" d="m78.7 615.8c-15.1 0.4-33.5 31.2-33.5 31.1q-0.1-0.1-0.2-0.3 0-0.2-0.1-0.3 0-0.2-0.1-0.4 0-0.1-0.1-0.3c3.8-6 19.6-29.4 32.7-29.8 14.1-0.4 6.3-16.5-8.4-33.8q-0.1-0.4-0.3-0.9-0.2-0.4-0.4-0.9-0.3-0.4-0.5-0.8-0.3-0.4-0.5-0.8c16.5 18.5 26.4 36.7 11.4 37.2z"/>
	<path id="Layer" class="s4" d="m82.8 592.6c0 3.8-0.4 7-1 7-0.5 0-1-3.2-1-7 0-3.9 0.6-2 1.1-2 0.5 0 0.9-1.9 0.9 2z"/>
	<path id="Layer" class="s4" d="m88.2 597.2c-3.4 1.8-6.4 3-6.6 2.5-0.3-0.6 2.3-2.4 5.7-4.2 3.3-1.9 2-0.5 2.3 0 0.2 0.5 2-0.2-1.4 1.7z"/>
	<path id="Layer" class="s1" d="m23 578.6c0 0-8.4 11 3.9 27.5 12.2 16.5 22.3 30.5 18.2 40.8 0 0-18.4-30.7-33.5-31.1-15-0.5-5.2-18.7 11.4-37.2z"/>
	<path id="Layer" class="s3" d="m23 578.6q-0.3 0.4-0.5 0.8-0.3 0.4-0.5 0.8-0.2 0.5-0.4 0.9-0.1 0.5-0.3 0.9c-14.7 17.3-22.5 33.4-8.4 33.8 13.2 0.4 28.9 23.8 32.7 29.8q-0.1 0.2-0.1 0.3-0.1 0.2-0.1 0.4-0.1 0.1-0.1 0.3-0.1 0.2-0.2 0.3c0 0.1-18.4-30.7-33.5-31.1-15-0.5-5.2-18.7 11.4-37.2z"/>
	<path id="Layer" class="s4" d="m8.3 590.6c0.6 0 1.1-1.9 1.1 2 0 3.8-0.4 7-1 7-0.6 0-1-3.2-1-7 0-3.9 0.4-2 0.9-2z"/>
	<path id="Layer" class="s4" d="m0.7 595.5c0.2-0.5-1.1-1.9 2.3 0 3.4 1.8 5.9 3.6 5.7 4.2-0.3 0.5-3.2-0.7-6.6-2.5-3.4-1.9-1.7-1.2-1.4-1.7z"/>
	<path id="Layer" class="s5" d="m10.1 645.5c0 0 23.4-0.7 30.5-5.8 7-5 36-11 37.8-3 1.7 8 35.2 40.1 8.7 40.4-26.4 0.2-61.4-4.2-68.5-8.4-7-4.3-8.5-23.2-8.5-23.2z"/>
	<path id="Layer" class="s6" d="m97.3 670.3c0.1 4-2.5 6.7-10.2 6.8-26.4 0.2-61.4-4.2-68.5-8.4-7-4.3-8.5-23.2-8.5-23.2h0.8c0.7 5.4 2.8 17.1 8.2 20.4 7 4.3 42 8.6 68.5 8.4 5.7-0.1 8.6-1.6 9.7-4z"/>
	<path id="Layer" class="s1" d="m980.3 575.8q-1.1 0.9-2.2 1.7-1.2 0.8-2.4 1.5-1.2 0.7-2.4 1.3h-14.6q-0.1-0.1-0.1-0.2 0-0.1-0.1-0.2 0-0.1-0.1-0.2 0-0.1-0.1-0.2-0.5-0.7-1-1.4-0.5-0.6-1.1-1.2-0.7-0.6-1.3-1.1-0.7-0.5-1.4-0.9c-2.5-1.6-5.1-3.1-6.8-5.4-1.7-2.3-2.3-5.9-0.3-8 1.6-1.7 4.2-2 6.6-1.9q0.5 0 1 0 0.5 0.1 1 0.2 0.5 0.1 1 0.3 0.5 0.2 1 0.5c2 1.2 2.6 3.9 2.6 6.2 0 2.3-0.4 4.7 0.1 7 0-6.4 1.5-13.4 6.7-17.1 1.6-1.2 4.1-1.8 5.5-0.3q0.2 0.2 0.3 0.4 0.2 0.3 0.3 0.5 0.1 0.3 0.2 0.5 0 0.3 0.1 0.6 0.2 1.3 0.2 2.7-0.1 1.3-0.5 2.6-0.5 1.3-1.2 2.4-0.8 1.2-1.8 2.1c2.6 0.4 4.9-1.6 6.9-3.3 2-1.8 4.6-3.5 7.1-2.5 2.2 0.8 3.2 3.6 2.7 5.9q-0.3 0.8-0.6 1.6-0.4 0.8-0.9 1.5-0.5 0.8-1.1 1.4-0.6 0.7-1.2 1.2-1.1 1-2.1 1.8z"/>
	<path id="Layer" class="s0" d="m93.9 415.6c-6.2-30.3 15.9-56.1 40-71 19.5-12.1 42.1-14.7 62.7-24.2 31.7-14.5 58.7-35.3 92.2-46.8 47.5-16.2 97.7-22.5 147.5-28.3 52-6 104.3-11.5 156.7-9 31.3 1.5 63.2 5.7 93.5-2.1 44.6-11.4 78.2-46.6 114.5-74.9 29-22.6 62-41.9 98.4-47.3 36.4-5.4 76.7 5.2 100.2 33.5 22.2 26.8 26.1 63.9 28.3 98.6 3.1 48.9 4.5 98.6-7.6 146.1-12.1 47.4-39.4 93-82 117.1-63.1 35.7-145.1 18.4-210.1 50.7-7.1 3.5-14.1 7.7-19.4 13.5-8.9 10-12.3 23.5-17 36-9.7 26-27.5 50.4-53.3 60.4-36.6 14.3-76.9-3.5-113.8-17.1-52.1-19.3-113.1-29.9-161.1-1.9-28.7 16.8-48.9 45.3-77.1 62.8-32.6 20.3-75.1 23.8-110.6 9.1-19.5-8-38-23.2-41.5-44-2.9-17 4.8-33.7 11.6-49.6 20.2-47.3 32.5-106.4 0.7-146.9-16.9-21.5-47-35.9-52.8-64.7z"/>
	<path id="Layer" class="s0" d="m552.4 480.3c-236.6 0-427.7-18.4-427.7-41.1 0-22.7 191.1-41.1 427.7-41.1 236.5 0 427.6 18.4 427.6 41.1 0 22.7-191.1 41.1-427.6 41.1z"/>
	<path id="Layer" class="s0" d="m223.7 717.3c-116.9 0-211.4-18.4-211.4-41.1 0-22.7 94.5-41.1 211.4-41.1 116.8 0 211.3 18.4 211.3 41.1 0 22.7-94.5 41.1-211.3 41.1z"/>
	<path id="Layer" class="s7" d="m450.4 428.6l1.5 4.2-0.9 3.7c0 0-10.3 0.9-10.6 0.3-0.4-0.6-4-5.5-4-5.5l3.3-4.9z"/>
	<path id="Layer" class="s8" d="m327.1 423.7l4.5 5.1 3.1 6.4-1.2 3.4-4.3-3.1-4.6-2.4-4.2-8.2 6.7-1.2z"/>
	<path id="Layer" class="s9" d="m436.7 344.5c0 0 35.6 8.5 42.3 18 0 0 6.1 5.2 0 14.6-6.1 9.5-14.6 30.8-14.6 30.8 0 0-6.1 20.7-8.5 22.2-2.5 1.5-16.5 2.7-17.7-3 0 0 7.9-12.5 7.9-18.3 0-5.8 13.1-33.2 13.1-33.2 0 0-29.8-3.3-39.3-1.2-9.4 2.2 4.3-33.2 16.8-29.9z"/>
	<path id="Layer" class="s3" d="m436.7 344.5c0 0 35.6 8.5 42.3 18 0 0 6.1 5.2 0 14.6-6.1 9.5-14.6 30.8-14.6 30.8 0 0-6.1 20.7-8.5 22.2-2.5 1.5-16.5 2.7-17.7-3 0 0 7.9-12.5 7.9-18.3 0-5.8 13.1-33.2 13.1-33.2 0 0-29.8-3.3-39.3-1.2-9.4 2.2 4.3-33.2 16.8-29.9z"/>
	<path id="Layer" class="s9" d="m429.4 352.7c-0.1 1.8-0.3 3.8-0.6 5.9-1.9 15.5-8.3 38.6-8.3 38.6 0 0-6.3 13.7-8.2 22.5-1.8 8.8-14.3 11-14.3 11 0 0-34.1 4-41.1 2.5-7-1.6-18 4.5-23.4 3.6-5.5-0.9-8.9-13.7-8.9-13.7q3.6 0 7.1-0.3 3.5-0.4 7-1.1 3.4-0.7 6.8-1.8 3.3-1.1 6.5-2.6c14-6.4 34.1-3.3 34.1-3.3q1.2-0.3 2.2-0.9 1-0.5 1.9-1.3 0.9-0.7 1.7-1.6 0.7-1 1.2-2c2.2-4.6 2.2-32.3 1.6-34.1-4-12-3.7-19.7-2.6-24.2q0.2-0.7 0.4-1.4 0.2-0.7 0.6-1.4 0.3-0.7 0.7-1.3 0.4-0.7 0.9-1.2z"/>
	<path id="Layer" class="s3" d="m429.4 352.7c-0.1 1.8-0.3 3.8-0.6 5.9-3 0.3-11.6 0.5-18-3.4-6-3.7-14.7-4.9-18.6-5.3q0.1-0.8 0.4-1.5 0.2-0.7 0.5-1.4 0.3-0.6 0.7-1.3 0.4-0.6 0.9-1.2z"/>
	<path id="Layer" class="s7" d="m433.6 348.9c-1.4 4-3.6 8.7-3.6 8.7 0 0-11.3 1.5-19.2-3.3-7.9-4.9-20.7-5.5-20.7-5.5 2.1-1.3 3.5-5.1 4.3-8.5q0.2-0.7 0.4-1.5 0.1-0.7 0.3-1.4 0.1-0.7 0.3-1.5 0.1-0.7 0.2-1.4c0-0.5 37.4 7.6 39 8.8 0.6 0.5-0.1 2.9-1 5.6z"/>
	<path id="Layer" class="s8" d="m500.3 220.6l-45.4 27.4-4.5 2.8v-13.4l3.1-1.5 38.3-18.3c0 0 1.8-33.2 6.7-28 4.9 5.2 1.8 31 1.8 31z"/>
	<path id="Layer" class="s3" d="m454.9 248l-4.5 2.8v-13.4l3.1-1.5q0.1 1.5 0.2 3 0.1 1.5 0.3 3.1 0.2 1.5 0.4 3 0.2 1.5 0.5 3z"/>
	<path id="Layer" class="s10" d="m419.9 252.9l32.6-18.8c0 0 0.6 18.2 4.3 21 0 0-13.4 4-18.6 12.4z"/>
	<path id="Layer" class="s3" d="m419.9 252.9l32.6-18.8c0 0 0.6 18.2 4.3 21 0 0-13.4 4-18.6 12.4z"/>
	<path id="Layer" class="s8" d="m500 269c0 0-15.5 6.8-25.7 9.3q-0.9 0.2-1.8 0.4-0.9 0.2-1.8 0.3-0.9 0.1-1.8 0.1-0.9 0-1.8 0c-7-1.3 1.9-10 1.9-10l3.6-0.6 19.8-3.1c0 0 2.1-30.4 5.8-28 3.6 2.5 1.8 31.6 1.8 31.6z"/>
	<path id="Layer" class="s8" d="m434.5 241.6c0 0-13 9.8-8.2 21.9 4.9 12.2-25.2-7.3-25.2-7.3 0 0 9.7-14.6 11.8-25.5 2.2-11 21.6 10.9 21.6 10.9z"/>
	<path id="Layer" class="s3" d="m433.6 348.9q-2.1-0.8-4.3-1.4-2.2-0.7-4.4-1.2-2.2-0.5-4.4-0.9-2.3-0.3-4.5-0.6c-8.8-1-16.9-2.7-21.5-4.5q0.1-0.7 0.3-1.5 0.2-0.7 0.3-1.4 0.1-0.7 0.3-1.5 0.1-0.7 0.2-1.4c0.1-0.5 37.4 7.6 39 8.8 0.6 0.5-0.1 2.9-1 5.6z"/>
	<path id="Layer" class="s3" d="m474.3 278.3q-0.9 0.2-1.8 0.4-0.9 0.2-1.8 0.3-0.9 0.1-1.8 0.1-0.9 0-1.8 0c-7-1.3 1.9-10 1.9-10l3.6-0.6c1.6 2.4 3.1 6.1 1.6 9.7z"/>
	<path id="Layer" class="s10" d="m444.4 263.6c18.5 8.8 25.2 2.1 25.2 2.1 0 0 7.3 7.3 3 14-4.2 6.7-8.8 4.2-8.8 4.2-10 5.2-26.8 0.9-26.8 0.9 0 0 4.5 49 4.2 55.8-0.2 6.7-3 9.7-3 9.7 0 0-6.3-4.6-22.2-6.4-15.8-1.8-29.2-5.8-25-9.1 4.3-3.4 8.5-22.6 8.5-22.6 0 0 0 0.2 0.1 0q0.1-0.2 0.1-0.4 0-0.2 0-0.4 0-0.2 0-0.4-0.1-0.2-0.2-0.3c-6.6-14.7-5.7-41-5.7-41 0 0-0.9-13.2 3.3-18 4.3-4.9 16.1-4.6 16.1-4.6 5.8-0.3 12.6 7.6 31.2 16.4z"/>
	<path id="Layer" class="s7" d="m332.9 435.6l-1.2 2.1c0 0-4 0.9-4.3 0.9-0.3 0-5.2-0.9-5.2-0.9l-3.6-8.2v-5.2h3.6c-2.7 6.1 10.7 11.2 10.7 11.2z"/>
	<path id="Layer" class="s10" d="m449.2 434.4c0.9-4.5 7-5.8 7-5.8 0.6 5.5 7 17 7 17l4.8 1c6.1 2.1 4.6 6.3 4.6 6.3l-18.3-0.6-23.1-11 5.5-12.1c3.9 9.4 12.5 5.1 12.5 5.2z"/>
	<path id="Layer" class="s10" d="m329.8 437.7q0.2-0.4 0.5-0.9 0.3-0.4 0.6-0.8 0.3-0.4 0.7-0.8 0.3-0.4 0.6-0.8c1.2-1.2 5.8 0.3 5.8 0.3-1.8 1.2-3 6.7-3 11.8 0 5.2 5.2 4.3 5.2 4.3 6.6 2.5 3.6 5.5 3.6 5.5-4.8 4.6-15.5 0-15.5 0l-18.9-25 8.2-6.7 1.9-1.5c-0.6 10.3 10.1 14.9 10.3 14.6z"/>
	<path id="Layer" class="s3" d="m433.9 242.2q-0.3 0.3-0.6 0.6-0.4 0.3-0.7 0.5-0.3 0.3-0.6 0.6-0.3 0.3-0.6 0.6c-1.9 0.8-4 1.1-6 1.1-2-0.1-4-0.5-5.9-1.3-1.9-0.8-3.6-2-5-3.4-1.5-1.5-2.6-3.2-3.4-5.1q0.2-0.5 0.4-1.1 0.1-0.6 0.3-1.1 0.1-0.6 0.3-1.2 0.1-0.6 0.2-1.1c2.2-11 21.9 10.8 21.6 10.9z"/>
	<path id="Layer" class="s3" d="m410.6 271.9c0 0 9.5 12.5 23.2 12.8"/>
	<g id="Layer" style="opacity: .1">
		<path id="Layer" class="s11" d="m466.7 284.2q-0.2 0.1-0.4 0.1-0.1 0-0.3 0.1-0.2 0-0.4 0 0.5-0.2 0.9-0.5 0.1 0.1 0.1 0.1 0.1 0 0.2 0.1 0.1 0 0.1 0 0.1 0 0.2 0.1-0.2 0-0.4 0z"/>
		<path id="Layer" class="s11" d="m468.4 267.6q-1 0.3-2 0.4-1 0.1-2.1 0.2-1 0-2-0.1c5-0.4 6.9-2.5 7-2.4q0.1 0.2 0.2 0.3 0.2 0.2 0.3 0.3 0.1 0.2 0.3 0.3 0.1 0.2 0.2 0.3-0.9 0.4-1.9 0.7z"/>
		<path id="Layer" class="s11" d="m442.7 285.5q1.6 0.3 3.1 0.5 1.5 0.2 3.1 0.3 1.5 0.1 3.1 0.2-1.6 0-3.1 0-1.5-0.1-3.1-0.2-1.5-0.1-3-0.3-1.5-0.2-3-0.5l-0.1-0.6q1.5 0.3 3 0.6z"/>
		<path id="Layer" class="s11" d="m438.8 349.1q-0.1 0.1-0.2 0.3-0.1 0.2-0.2 0.3-0.1 0.2-0.2 0.3-0.2 0.2-0.3 0.3c0 0-6.3-4.6-22.2-6.4-15.9-1.8-29.3-5.8-25-9.1 4.3-3.4 8.5-22.5 8.5-22.5 0 0 0 0.1 0.1-0.1q0.1-0.1 0.1-0.3 0-0.2 0-0.4 0-0.2 0-0.4-0.1-0.2-0.2-0.4c-6.6-14.7-5.7-41-5.7-41 0 0-1-13.1 3.3-18 4.3-4.8 16.1-4.5 16.1-4.5q0.2 0 0.3-0.1 0.1 0 0.2 0 0.2 0 0.3 0 0.1 0.1 0.2 0.1c-3.5 0.1-10.9 0.9-14.1 4.5-4.3 4.9-3.3 18-3.3 18 0 0-0.9 26.2 5.7 41q0.1 0.2 0.2 0.4 0 0.1 0 0.3 0 0.2 0 0.4 0 0.2-0.1 0.4c-0.1 0.2-0.1 0.1-0.1 0.1 0 0-4.3 19.1-8.5 22.5-4.2 3.4 9.2 7.3 25 9.1 10.6 1.2 17 3.7 20.1 5.2z"/>
	</g>
	<path id="Layer" class="s8" d="m426.3 245c-8.7 0-15.8-7.1-15.8-15.9 0-8.7 7.1-15.8 15.8-15.8 8.8 0 15.9 7.1 15.9 15.8 0 8.8-7.1 15.9-15.9 15.9z"/>
	<path id="Layer" class="s3" d="m448.9 222.1c-1.3 3.2-5.3 4.5-8.7 5.3-4.9 1.2-10.2 2.4-14.9 0.5q-0.2-0.1-0.4-0.2-0.3-0.1-0.5-0.1-0.3-0.1-0.5-0.1-0.3 0-0.6 0.1-0.2 0-0.4 0.2-0.1 0.1-0.3 0.2-0.2 0.2-0.3 0.3-0.2 0.2-0.3 0.4c-5.1 7.4-4.3 17.2-5.6 26.1-0.5 2.7-1.2 5.6-3 7.7-3.7 4-10.6 3.8-13.9 8.1-2.2 2.8-2.2 6.7-2.2 10.2q0 5.7-0.1 11.5c-0.1 2.5-0.2 5.1-1.3 7.3-1.9 3.7-6.2 5.5-10.2 7-2.4 0.9-5 1.8-7.6 1.6-2.7-0.3-5.3-2-5.6-4.7-0.5-3.5 3.2-6 5.7-8.6 4.1-4.1 5.8-10.1 5.9-15.9q0.1-0.9 0-1.7 0-0.9-0.1-1.8-0.2-0.8-0.4-1.7-0.2-0.8-0.5-1.7c-0.9-2.2-2.6-4.1-3.6-6.4-3.1-6.9 0.7-14.9 5.3-20.9 4.5-6 10.1-11.9 11.1-19.4q0-0.6 0.1-1.2 0-0.6 0.1-1.2 0.1-0.6 0.2-1.2 0.1-0.6 0.3-1.2c0.7-2.2 2.3-8.2 4.2-9.6q1.1-0.8 2.3-1.5 1.1-0.7 2.4-1.2 1.3-0.5 2.6-0.9 1.3-0.4 2.7-0.6c2.8-0.4 5.7-0.2 8.4-0.8 3.3-0.6 6.3-2.2 9.6-2.7 7-1.3 14.7 6.9 17.8 13.4 0.8 2 3.1 3.4 2.3 5.4z"/>
	<path id="Layer" class="s12" d="m448.9 221.4c-1.3 3.3-5.3 4.6-8.7 5.4-4.9 1.2-10.2 2.4-14.9 0.5q-0.2-0.1-0.4-0.2-0.3-0.1-0.5-0.1-0.3-0.1-0.5-0.1-0.3 0-0.6 0-0.2 0.1-0.4 0.2-0.1 0.2-0.3 0.3-0.2 0.2-0.3 0.3-0.2 0.2-0.3 0.4c-5.1 7.4-4.3 17.2-5.6 26.1-0.5 2.7-1.2 5.6-3 7.7-3.7 4-10.6 3.8-13.9 8.1-2.2 2.8-2.2 6.7-2.2 10.2q0 5.7-0.1 11.5c-0.1 2.5-0.2 5-1.3 7.3-1.9 3.7-6.2 5.5-10.2 7-2.4 0.9-5 1.8-7.6 1.6-2.7-0.3-5.3-2-5.6-4.7-0.5-3.5 3.2-6 5.7-8.6 4.1-4.1 5.8-10.1 5.9-15.9q0.1-0.9 0-1.7 0-0.9-0.1-1.8-0.2-0.9-0.4-1.7-0.2-0.8-0.5-1.7c-0.9-2.2-2.6-4.2-3.6-6.4-3.1-6.9 0.7-14.9 5.3-20.9 4.5-6.1 10.1-11.9 11.1-19.4q0-0.6 0.1-1.2 0-0.6 0.1-1.3 0.1-0.6 0.2-1.2 0.1-0.5 0.3-1.1c0.7-2.2 2.3-8.2 4.2-9.6q1.1-0.8 2.3-1.5 1.1-0.7 2.4-1.2 1.3-0.6 2.6-0.9 1.3-0.4 2.7-0.6c2.8-0.4 5.7-0.2 8.4-0.8 3.3-0.6 6.3-2.2 9.6-2.7 7-1.3 14.7 6.9 17.8 13.4 0.8 1.9 3.1 3.3 2.3 5.3z"/>
	<path id="Layer" class="s13" d="m500 191h263.2v263.2h-263.2z"/>
	<path id="Layer" class="s11" d="m569.2 410.9l20.2-12.2c3.8 6.9 7.4 12.8 15.9 12.8 8.1 0 13.2-3.2 13.2-15.6v-84.1h24.7v84.5c0 25.6-15 37.2-36.9 37.2-19.8 0-31.2-10.2-37.1-22.6m87.5-2.6l20.1-11.7c5.3 8.7 12.2 15 24.4 15 10.2 0 16.8-5.1 16.8-12.2 0-8.5-6.8-11.5-18-16.4l-6.2-2.7c-17.9-7.5-29.7-17.1-29.7-37.2 0-18.6 14.1-32.7 36.2-32.7 15.7 0 27 5.5 35.2 19.8l-19.3 12.3c-4.2-7.6-8.8-10.6-15.9-10.6-7.2 0-11.8 4.6-11.8 10.6 0 7.5 4.6 10.5 15.2 15l6.1 2.7c21 9 32.9 18.2 32.9 38.9 0 22.2-17.5 34.4-41 34.4-23 0-37.8-11-45-25.3"/>
	<path id="Layer" fill-rule="evenodd" class="s14" d="m876.9 610.4c-27.7-8.5-44-7.8-44-7.8l2.3-12.8q-0.3-0.2-0.5-0.4-0.3-0.2-0.5-0.4-0.2-0.2-0.5-0.4-0.2-0.2-0.4-0.5c0 0 2.8-15.6 0-19.5-2.8-3.9-10.6-39.3-10.6-39.3v-12c-14.2-4.9-30.9-33.6-30.9-33.6l-20.9 53.8c0 0-20.9 41.5-23.7 42.9-2.3 1.1-3.4 10.4-3.8 14.1h0.2c-0.1 0.9-0.1 1.5-0.1 1.5l-0.2-0.1v0.1q-0.1-0.1-0.2-0.2-0.2-0.1-0.3-0.2-0.2 0-0.3-0.1-0.1-0.1-0.3-0.2 1.8 2.1 3.7 4.2 1.8 2 3.7 4 1.9 2 3.9 3.9 2 1.9 4 3.8c2.8 2.5-2.2 4.3-4.6 4.3q-0.5 0-1 0-0.5 0.1-1 0.1-0.5 0.1-1 0.2-0.5 0.1-1 0.3c-11.9 4.1-31.5-10.9-31.5-10.9l4.9-13.7c-1.3-0.1-2-0.1-2-0.1 0 0 15.9-56 23.3-61.3q0.9-0.7 1.8-1.4 0.8-0.7 1.6-1.4 0.8-0.8 1.5-1.6 0.7-0.8 1.4-1.6 1.3-1.6 2.3-3.4 1-1.9 1.7-3.8 0.6-2 0.9-4 0.3-2.1 0.1-4.2l-2.6-45.9c-4.2-0.6-6.9-1.1-6.9-1.1 0 0-0.9-12.6-0.9-22.2-0.1-5 0.2-9.4 0.9-11.1 0.9-2.1 1.2-6.1 1.2-10.2 0-5.5-0.5-10.7-0.5-10.7 0 0-5.6-7.5-13.4-24.5-3.5-7.5-4.4-13.4-4.3-17.6q0-0.8 0-1.5 0.1-0.8 0.1-1.5 0.1-0.7 0.2-1.5 0.1-0.7 0.3-1.4 0.2-0.7 0.5-1.4 0.3-0.7 0.7-1.3 0.4-0.6 1-1.1 0.5-0.5 1.1-0.9c4.5-2.7 14.7-9.5 17.7-16 3.8-8.4 9.4-9.6 9.6-9.6l0.3-1.5q-0.8-0.6-1.4-1.4-0.7-0.7-1.3-1.6-0.6-0.9-1-1.8-0.4-0.9-0.7-1.9c-1.2-3.5-1.4-7.3-2.4-10.9-0.5-1.8-1.1-3.5-1.6-5.2q-0.1-0.7-0.2-1.3-0.2-0.7-0.2-1.4-0.1-0.6-0.2-1.3 0-0.7 0-1.4 0-0.9 0.1-1.9 0-1 0.2-2 0.2-0.9 0.6-1.8 0.3-1 0.7-1.9 0.7-1.4 1.7-2.6 0.9-1.2 2.2-2.2 1.3-0.9 2.7-1.5 1.5-0.6 3-0.9c2.3-0.2 4.8 0.1 6.7-1.2 1.3-0.9 2-2.5 3.1-3.6 2.3-2.1 5.9-2 8.8-1q1.5 0.5 2.9 1.3 1.3 0.7 2.6 1.7 1.2 0.9 2.2 2 1.1 1.2 1.9 2.5c1.4 2.1 2.3 4.5 4.1 6.3 1.4 1.5 3.4 2.5 5 3.8q0.9 0.7 1.6 1.6 0.8 0.9 1.3 1.9 0.5 1 0.8 2.1 0.2 1.2 0.3 2.3c0 0 0 0.1 0 0.1q0 0.3 0 0.6c-0.1 3.1-2.2 6.1-5.2 6.7q-0.3 0.1-0.6 0.1-0.3 0-0.6 0-0.3 0-0.6 0-0.3 0-0.6 0c0.6 2.4 0.8 5 0.4 7.6-0.3 2.5-1.2 4.9-2.5 7.1-1.3 2.2-3 4.1-5.1 5.6-2.1 1.6-4.4 2.6-6.9 3.2q0.1 0.4 0.1 0.8h-0.1q0.1 0.4 0.2 0.9 0.2 0.5 0.3 0.9 0.2 0.5 0.4 0.9 0.2 0.4 0.3 0.9h0.3l-0.6-1 8.1-0.6q0.9 0 1.8 0 0.9 0.1 1.8 0.2 0.8 0.2 1.7 0.5 0.8 0.2 1.6 0.6 1.3 0.6 2.5 1.5 1.1 0.9 1.9 2.1 0.8 1.1 1.3 2.5 0.5 1.3 0.6 2.8c0.7 9.1 18 23 18 23 6.1 9.5 45.5 11.2 45.4 11.3q-0.1 0.2-0.2 0.3l0.8-0.1 3-0.6c0 0 9.2-27.2 18.1-22.3 8.8 5-15.3 31.9-15.3 31.9l-7 0.5h-0.7q0.1 0.6 0.2 1.3 0.2 0.6 0.3 1.3 0.1 0.6 0.3 1.3 0.2 0.6 0.3 1.3c0.1 0.3 0.2 0.6 0.2 0.6q-4.2-0.5-8.4-0.8-4.3-0.3-8.5-0.6-4.2-0.2-8.5-0.3-4.2-0.1-8.4-0.1h-2.5c-0.7 8.6-13 26-13 26l-7.5 1.5-0.6 0.1q1 1.9 2 3.7 1 1.9 2.2 3.6 1.1 1.7 2.4 3.4 1.2 1.7 2.6 3.2l2.5 13.8h-0.2l0.2 1.1q-0.1 0-0.3-0.1-0.1 0-0.3-0.1-0.1-0.1-0.3-0.2-0.1-0.1-0.2-0.2c4.8 13 12.9 33 18.5 40 8.5 10.6 7.4 27.6 7.4 27.6 0 0 8.5 44.6 8.2 52.8q0 1.4 0.1 2.9 0.2 1.4 0.6 2.9 0.4 1.4 1 2.7 0.6 1.4 1.3 2.6 0.7 0.7 1.3 1.5 0.5 0.7 1.1 1.5 0.5 0.8 1 1.6 0.5 0.8 1 1.6c6.4 11 16.6 10.3 16.6 10.3 8.9 5.7-1.7 10.3-1.7 10.2zm-54.9-216.2l-0.9-0.4h-0.2l-0.9-0.4-0.2-0.1-0.7-0.4h-0.2l-0.9-0.5-0.1-0.1-0.8-0.4h-0.1l-0.8-0.4-0.2-0.1-0.8-0.5-0.1-0.1-0.7-0.4-0.1-0.1-0.8-0.5-0.1-0.1-0.7-0.4h-0.1l-0.7-0.5-0.1-0.1-0.7-0.5-0.1-0.1-0.6-0.4-0.1-0.1-0.6-0.4-0.1-0.1-0.6-0.5-0.6-0.4-0.1-0.1-0.5-0.5-0.5-0.4h-0.1l-0.4-0.4-0.1-0.1-0.4-0.4-0.4-0.4h-0.1l-0.8-0.8-1.1-0.1c-1 1.3-1.4 3.6-1.4 6.1q0.1 1.9 0.2 3.8 0.2 1.8 0.5 3.7 0.2 1.8 0.6 3.7 0.3 1.8 0.8 3.6 0 1.6 0.2 3.1 0.2 1.5 0.4 3 0.3 1.5 0.7 3 0.3 1.4 0.8 2.9 0.3 0 0.6-0.1 0.3 0 0.7-0.1 0.3-0.1 0.6-0.2 0.3-0.1 0.6-0.2c0 0 0 0.2 0.1 0.7l0.7-0.2 3.4-0.9c0 0 2.9-14.5 8.6-20.7z"/>
	<path id="Layer" class="s15" d="m739.2 586.5c0 0 11.1 13.5 19.4 20.8 2.5 2.2-1.6 4-4 4.2q-0.7 0-1.4 0.1-0.7 0.1-1.3 0.2-0.7 0.1-1.4 0.3-0.6 0.1-1.3 0.3c-11.7 2.8-29.7-11-29.7-11l6.6-18.3z"/>
	<path id="Layer" class="s15" d="m850.6 577.3c0 0 3.8-1.4 10 9.3 6.3 10.7 16.3 10 16.3 10 8.6 5.5-1.8 10-1.8 10-27-8.3-42.9-7.6-42.9-7.6l3.1-17.6z"/>
	<path id="Layer" class="s16" d="m806.5 420.4l9.5 20.5c0 0 13.7 39.8 22 50.2 8.3 10.4 7.3 27 7.3 27 0 0 8.3 43.5 8 51.5-0.4 7.9 5.5 14.5 5.5 14.5-18.3 10.7-26.3 0.7-26.3 0.7 0 0 2.8-15.2 0-19-2.8-3.8-10.4-38.4-10.4-38.4v-11.7c-13.8-4.9-30.1-32.9-30.1-32.9l-20.4 52.6c0 0-20.3 40.4-23.1 41.8-2.8 1.4-3.8 15.2-3.8 15.2-4.9-3.5-22.5-4.5-22.5-4.5 0 0 15.6-54.6 22.8-59.8q0.8-0.6 1.6-1.2 0.7-0.6 1.4-1.3 0.7-0.7 1.4-1.4 0.7-0.7 1.3-1.4 1.4-1.6 2.5-3.5 1-1.8 1.7-3.9 0.7-2 0.9-4.1 0.3-2.1 0.2-4.2l-3-53.7z"/>
	<g id="Layer" style="opacity: .1">
		<path id="Layer" class="s11" d="m745 591c-0.1 0.9-0.1 1.4-0.1 1.4-4.8-3.5-22.5-4.5-22.5-4.5 0 0 15.6-54.6 22.9-59.8q0.8-0.6 1.6-1.3 0.8-0.6 1.5-1.3 0.8-0.8 1.5-1.5 0.7-0.8 1.4-1.6 1.3-1.6 2.3-3.4 1-1.8 1.6-3.8 0.7-1.9 0.9-4 0.3-2 0.2-4.1l-3.1-53.7 53.4-32.9 0.7 1.5-51 31.4 3.1 53.7q0.1 2-0.2 4.1-0.2 2.1-0.9 4-0.6 2-1.6 3.8-1 1.8-2.3 3.4-0.7 0.8-1.4 1.6-0.7 0.7-1.5 1.4-0.7 0.8-1.5 1.4-0.8 0.7-1.6 1.3c-7.3 5.2-22.9 59.8-22.9 59.8 0 0 12.7 0.8 19.5 3.1z"/>
		<path id="Layer" class="s11" d="m845.2 589c-8.6 0.7-12.4-4.2-12.4-4.2 0 0 2.7-15.2 0-19-2.8-3.8-10.4-38.4-10.4-38.4v-11.7c-11-3.9-23.5-22.3-28.2-29.8l1.2-3.1c0 0 16.3 28 30.1 32.9v11.7c0 0 7.6 34.6 10.4 38.4 2.7 3.8 0 19 0 19 0 0 2.9 3.7 9.3 4.2z"/>
	</g>
	<path id="Layer" class="s17" d="m872 393.2l-6.8 0.5-3.6 0.2v-8.6l4.7-0.9 2.9-0.5c0 0 9.1-26.6 17.7-21.8 8.6 4.8-14.9 31.1-14.9 31.1z"/>
	<path id="Layer" class="s17" d="m783.8 328.1c-7.3 8.3 5.5 23.9 5.5 23.9 0 0-33.5 8.6-32.1-2.1 1.4-10.7 5.9-28 5.9-28z"/>
	<path id="Layer" class="s7" d="m799.4 393.9l0.7 6.6-10.7-0.7-10.8-9.3-10.7-30.1-6.9-10.8-5.2-6.5 2.1-8c0 0 1 0.8 2.5 2 5.3 4 17.7 12.4 26.7 10.1q0.2 0 0.3-0.1 0.2 0 0.3-0.1 0.2 0 0.3-0.1 0.2 0 0.3-0.1l13.5 23.2z"/>
	<path id="Layer" class="s3" d="m760.6 333l-1.3 7.9c0 0 8 15.7 14.8 19.5 6.9 3.8 22.5 37.3 22.5 37.3 0 0-1.4-25.2-0.7-28.3 0.7-3.2-12.8-27-12.8-27l7.8-0.6q1-0.1 2.1 0 1 0.1 1.9 0.3 1 0.2 2 0.6 0.9 0.4 1.8 0.9 1.1 0.6 2 1.4 1 0.9 1.6 2 0.7 1 1.1 2.2 0.4 1.2 0.5 2.5c0.7 9 17.6 22.5 17.6 22.5 5.9 9.3 44.3 11.1 44.3 11.1-3.5 4.1-61.9-0.7-61.9-0.7-3.5 4.5 0.7 21.4 0.7 21.4 0.7 18.7 14.1 33.2 14.1 33.2l2.5 13.5c-4.2-0.7-15.6-24.9-15.6-24.9 0 0 1.7 26.6-10.4 33.5-12.1 7-48.4 0-48.4 0 0 0-2.1-26.6 0-31.4 2.1-4.9 0.7-21.5 0.7-21.5 0 0-5.5-7.2-13.1-23.8-4.9-10.6-4.5-17.9-3.7-21.9q0.2-0.7 0.5-1.4 0.3-0.7 0.8-1.3 0.4-0.6 0.9-1.1 0.6-0.5 1.2-0.8c4.4-2.7 14.3-9.3 17.2-15.7 3.8-8.4 9.3-9.4 9.3-9.4"/>
	<path id="Layer" class="s3" d="m799.4 393.9l0.7 6.6-10.7-0.7-10.8-9.3-10.7-30.1-6.9-10.8-5.2-6.5 2.1-8c0 0 1 0.8 2.5 2l-0.4 2.8c0 0 8 15.6 14.8 19.4 6.9 3.8 22.5 37.3 22.5 37.3 0 0-1.4-25.2-0.7-28.3 0.5-2.1-5.6-13.8-9.5-21.1q0.2 0 0.3-0.1 0.2 0 0.3-0.1 0.2 0 0.3-0.1 0.2 0 0.3-0.1l13.5 23.2z"/>
	<path id="Layer" class="s3" d="m865.2 393.7l-3.6 0.2v-8.6l4.7-0.9c-1.6 2.2-1.5 6-1.1 9.3z"/>
	<path id="Layer" class="s16" d="m760.6 332l-1.3 7.9c0 0 8 15.6 14.8 19.4 6.9 3.8 22.5 37.4 22.5 37.4 0 0-1.4-25.2-0.7-28.4 0.7-3.1-12.8-27-12.8-27l7.8-0.5q1-0.1 2.1 0 1 0.1 1.9 0.3 1 0.2 2 0.6 0.9 0.3 1.8 0.8 1.1 0.6 2 1.5 1 0.9 1.6 1.9 0.7 1.1 1.1 2.3 0.4 1.2 0.5 2.5c0.7 9 17.6 22.5 17.6 22.5 5.9 9.3 44.3 11 44.3 11-3.5 4.2 2.7 15.6 0 15.2q-4.1-0.4-8.3-0.7-4.1-0.4-8.3-0.6-4.1-0.2-8.3-0.3-4.2-0.1-8.3-0.1c-15.2 0.4-28.7-14.2-28.7-14.2-3.5 4.5 0.7 21.5 0.7 21.5 0.7 18.7 14.1 33.2 14.1 33.2l2.5 13.5c-4.2-0.8-15.6-24.9-15.6-24.9 0 0 1.7 26.6-10.4 33.5-12.1 6.9-48.4 0-48.4 0 0 0-2.1-26.6 0-31.5 2.1-4.8 0.7-21.4 0.7-21.4 0 0-5.5-7.3-13.1-23.9-4.9-10.5-4.5-17.9-3.7-21.8q0.2-0.7 0.5-1.4 0.3-0.7 0.8-1.3 0.4-0.6 0.9-1.1 0.6-0.5 1.2-0.9c4.4-2.7 14.3-9.3 17.2-15.7 3.8-8.3 9.3-9.3 9.3-9.3"/>
	<path id="Layer" class="s3" d="m753 368.3c0 0 8.3 28 13.1 31.5 4.9 3.5 34.3 21.1 42.9 16.9 0 0 2.1 10.4-1 12.8 0 0-32.2-1.2-32.5-1.3 0 0-21.1-2.8-24.5-13.2-3.5-10.3-7.6-28-7.6-28z"/>
	<path id="Layer" class="s18" d="m797.3 400c-0.7 0-1.2-0.8-1.2-1.8 0-0.9 0.5-1.7 1.2-1.7 0.7 0 1.2 0.8 1.2 1.7 0 1-0.5 1.8-1.2 1.8z"/>
	<path id="Layer" class="s18" d="m800.8 412.1c-0.7 0-1.3-0.8-1.3-1.8 0.1-0.9 0.6-1.7 1.3-1.7 0.6 0 1.2 0.8 1.2 1.7 0 1-0.6 1.8-1.2 1.8z"/>
	<g id="Layer" style="opacity: .1">
		<path id="Layer" class="s11" d="m788.1 462.6c-15.4 2.6-41.3-2.3-41.3-2.3 0 0-2.1-26.6 0-31.5 2.1-4.8 0.7-21.4 0.7-21.4 0 0-5.5-7.3-13.1-23.9-4.9-10.6-4.5-17.9-3.7-21.9q0.2-0.7 0.5-1.3 0.3-0.7 0.8-1.3 0.4-0.6 0.9-1.1 0.6-0.5 1.2-0.9c4.4-2.7 14.3-9.3 17.2-15.7 3.8-8.3 9.4-9.3 9.4-9.3l-0.2 0.7c-1.9 1.2-4.6 3.6-6.8 8.3-2.9 6.3-12.8 12.9-17.2 15.6q-0.6 0.4-1.1 0.9-0.6 0.5-1 1.1-0.4 0.6-0.8 1.3-0.3 0.7-0.4 1.4c-0.9 3.9-1.3 11.3 3.6 21.9 7.6 16.6 13.1 23.8 13.1 23.8 0 0 1.4 16.6-0.7 21.5-2 4.8 0 31.4 0 31.4 0 0 23.4 4.5 38.9 2.7z"/>
		<path id="Layer" class="s11" d="m783.1 341.3l2.5-0.1c1.2 2.1 13.4 23.8 12.7 26.8-0.7 3.1 0.7 28.3 0.7 28.3 0 0-1-2.2-2.7-5.6-0.4-7.7-0.9-20.3-0.4-22.4 0.7-3.1-12.8-27-12.8-27z"/>
		<path id="Layer" class="s11" d="m842.7 397.4q3.8 0.1 7.6 0.3 3.9 0.2 7.7 0.4 3.8 0.3 7.6 0.7c0.1 0.4 2.9 0.9 0.2 0.6q-4.1-0.4-8.3-0.8-4.1-0.3-8.3-0.5-4.1-0.2-8.3-0.3-4.2-0.1-8.3-0.1c-12.2 0.3-23.2-8.9-27.2-12.6q0.1-0.3 0.2-0.5 0.1-0.3 0.2-0.5 0.1-0.3 0.2-0.5 0.1-0.2 0.3-0.4c0 0 13.5 14.5 28.7 14.2q3.8-0.1 7.7 0z"/>
		<path id="Layer" class="s11" d="m820.6 448.8l0.5 2.9c-2.9-0.5-9.4-12.7-13-19.9 0-3.2-0.1-5.4-0.1-5.4 0 0 7.6 16.1 12.6 22.4z"/>
	</g>
	<path id="Layer" class="s17" d="m817.7 422.9l-7.3 1.6-5.8 1.2 3.1-8.6 2.1-0.6 3.4-0.8c0 0 4.9-24.2 14.5-22.5 9.7 1.7-10 29.7-10 29.7z"/>
	<path id="Layer" class="s3" d="m810.4 424.5l-5.8 1.2 3.1-8.6 2.2-0.6q0.1 1 0.3 2 0.1 1 0.1 2 0.1 1 0.1 2 0 1 0 2z"/>
	<path id="Layer" class="s16" d="m753 367.6c0 0 8.3 28 13.1 31.5 4.9 3.5 34.3 21.1 42.9 16.9 0 0 2.1 10.4-1 12.8 0 0-32.2-1.2-32.5-1.3 0 0-21.1-2.8-24.5-13.2-3.5-10.3-7.6-28-7.6-28z"/>
	<path id="Layer" class="s3" d="m784.2 328.9c-2.5 2.8-2.7 6.4-1.8 9.9-2 0.5-4.1 0.6-6.1 0.4-2-0.2-4-0.8-5.8-1.6-1.9-0.9-3.6-2-5.1-3.4-1.4-1.4-2.7-3.1-3.6-4.9 0.9-3.9 1.6-6.6 1.6-6.6z"/>
	<path id="Layer" class="s17" d="m777.9 338.6c-10.3 0-18.6-8.4-18.6-18.7 0-10.3 8.3-18.7 18.6-18.7 10.4 0 18.7 8.4 18.7 18.7 0 10.3-8.3 18.7-18.7 18.7z"/>
	<path id="Layer" class="s3" d="m786.7 312.5c-1.4 0.2-3.5 3-4.8 3.8q-1.4 0.8-2.9 1.4-1.6 0.6-3.2 1-1.6 0.3-3.3 0.3-1.6 0.1-3.3-0.1-0.2-0.1-0.4-0.1-0.3-0.1-0.5-0.1-0.2 0-0.5 0.1-0.2 0-0.5 0.1-0.2 0.1-0.5 0.3-0.2 0.2-0.4 0.4-0.2 0.2-0.4 0.5-0.1 0.2-0.2 0.5-0.7 1.3-1.1 2.7-0.5 1.4-0.8 2.8-0.3 1.4-0.4 2.9-0.1 1.4 0 2.9c-3.5-1-5.8-4.4-6.9-7.9-1.1-3.5-1.3-7.2-2.3-10.7-0.5-1.7-1.1-3.3-1.5-5q-0.5-1.5-0.6-3-0.2-1.5 0-3.1 0.1-1.5 0.5-3 0.3-1.5 1-2.9 0.6-1.4 1.6-2.6 1-1.1 2.2-2.1 1.2-0.9 2.7-1.5 1.4-0.6 2.9-0.8c2.2-0.2 4.7 0.1 6.5-1.2 1.3-0.9 1.9-2.4 3.1-3.5 2.2-2.1 5.7-2 8.5-1q1.5 0.5 2.8 1.2 1.3 0.8 2.5 1.7 1.2 0.9 2.3 2 1 1.1 1.8 2.4c1.4 2.1 2.3 4.4 4 6.2 1.5 1.4 3.3 2.4 4.9 3.7q0.9 0.7 1.6 1.5 0.7 0.9 1.2 1.9 0.5 1 0.8 2.1 0.3 1.1 0.3 2.2 0 1.1-0.4 2.2-0.4 1-1.1 1.9-0.6 0.9-1.6 1.5-0.9 0.6-2 0.9-0.5 0.1-1 0.1-0.5 0-1.1 0-0.5 0-1-0.1-0.5-0.1-1-0.2c-1.9-0.5-5.7-2.6-7.5-2.3z"/>
	<path id="Layer" class="s19" d="m786.7 311.8c-1.4 0.3-3.5 3-4.8 3.8q-1.4 0.9-2.9 1.5-1.6 0.6-3.2 0.9-1.6 0.3-3.2 0.4-1.7 0-3.3-0.2-0.3-0.1-0.5-0.1-0.2 0-0.5-0.1-0.2 0.1-0.5 0.1-0.2 0-0.4 0.1-0.3 0.1-0.5 0.3-0.3 0.2-0.5 0.4-0.2 0.2-0.3 0.5-0.2 0.2-0.3 0.5-0.7 1.3-1.1 2.7-0.5 1.4-0.8 2.8-0.3 1.4-0.4 2.9-0.1 1.5 0 2.9c-3.5-1-5.8-4.4-6.9-7.9-1.1-3.5-1.3-7.2-2.3-10.7-0.5-1.6-1.1-3.3-1.5-5q-0.5-1.5-0.6-3-0.2-1.5 0-3.1 0.1-1.5 0.5-3 0.3-1.5 1-2.9 0.6-1.4 1.6-2.6 1-1.1 2.2-2.1 1.2-0.9 2.7-1.5 1.4-0.5 2.9-0.8c2.2-0.2 4.7 0.1 6.5-1.2 1.3-0.9 1.9-2.4 3.1-3.5 2.2-2 5.7-2 8.5-1q1.5 0.5 2.8 1.2 1.3 0.8 2.5 1.7 1.2 0.9 2.3 2 1 1.2 1.8 2.4c1.4 2.1 2.3 4.4 4 6.2 1.5 1.4 3.3 2.4 4.9 3.7q0.9 0.7 1.6 1.5 0.7 0.9 1.2 1.9 0.5 1 0.8 2.1 0.3 1.1 0.3 2.2 0 1.1-0.4 2.2-0.4 1-1.1 1.9-0.6 0.9-1.6 1.5-0.9 0.6-2 0.9-0.5 0.1-1 0.1-0.5 0.1-1.1 0-0.5 0-1-0.1-0.5-0.1-1-0.2c-1.9-0.4-5.7-2.6-7.5-2.3z"/>
	<path id="Layer" class="s20" d="m980.5 252.4l-15.2 170.7-68.5 19-68.3-19-15.3-170.7z"/>
	<path id="Layer" class="s21" d="m896.9 266.4h68.3l-13 145.9-55.3 15.3z"/>
	<path id="Layer" class="s22" d="m869.2 329.7h27.7v20.9h-46.9l-5.1-57.7-0.5-5.6h52.5v21h-29.7zm4.3 48l23.4 6.3h0.1v21.9h-0.1l-42.9-11.9-2.9-32.9h21z"/>
	<path id="Layer" class="s23" d="m828.8 206h10.6v10.5h9.8v-10.5h10.6v31.9h-10.6v-10.7h-9.8v10.7h-10.6zm45 10.5h-9.4v-10.5h29.4v10.5h-9.4v21.3h-10.6c0 0 0-21.3 0-21.3zm24.7-10.5h11.1l6.8 11.2 6.8-11.2h11.1v31.8h-10.6v-15.8l-7.3 11.3h-0.2l-7.3-11.3v15.8h-10.4zm41.1 0h10.7v21.3h15v10.5h-25.6v-31.8z"/>
	<path id="Layer" class="s24" d="m896.8 350.7v-21h48.7l-0.5 5.7-5 55.1-0.3 3.5-42.9 11.9v-21.8l23.4-6.3 2.4-27.2h-25.8zm0-63.3h52.5l-0.5 5.6-1 10.6-0.4 4.7h-50.6c0 0 0-20.9 0-20.9z"/>
	<path id="Layer" fill-rule="evenodd" class="s25" d="m367.7 382q0.4 1.7 0.5 3.6 0.2 1.8 0.1 3.6-0.1 1.8-0.4 3.6c-1.9 11.7-6.1 35.6-10.8 56.4-6.5 28.8-13.5 22.3-16.8 29.3-3.2 7.1-0.5 16.9-0.5 16.9q-0.1 0-0.2 0-0.1 0-0.1 0-0.1 0-0.2 0-0.1 0-0.1 0-0.1 0-0.3 0-0.1 0-0.2-0.1-0.1 0-0.2 0-0.1 0-0.2 0 0 0.8 0 1.6c-0.3 17.6-14.5 21.8-14.5 21.8 0 0 6.5 20.1 0.5 38.5-6 18.5 4.3 34.7 4.3 34.7 0 0 19.2 56 15.9 59.2-3.3 3.3 2.7 13.6 2.7 13.6q-0.3 0.4-0.6 0.7c7.7 9.1 5.5 21.3 5 23.4v0.3c0 0-45 3.2-59.1 2.1l-1.1-0.1h-0.2l-1-0.1h-0.2l-1-0.2h-0.1l-0.8-0.2h-0.2l-0.8-0.3-0.1-0.1-0.7-0.3h-0.1l-0.6-0.3h-0.1l-0.6-0.3-0.1-0.1-0.5-0.3-0.1-0.1-0.4-0.3q-0.2-0.2-0.4-0.4l-0.1-0.1q-0.1-0.2-0.2-0.4l-0.1-0.1q-0.1-0.2-0.2-0.3v-0.1q-0.1-0.2-0.2-0.4v-0.1q-0.1-0.2-0.1-0.4v-0.1c-0.1-0.1-0.1-0.2-0.1-0.4 0-0.1 0-0.3 0-0.4 0 0 0-0.1 0-0.1-3.5 0-6.5-0.1-8.7-0.2l-1.2-0.1h-0.2l-1-0.2h-0.1l-1-0.2h-0.1l-0.9-0.2h-0.1l-0.8-0.3h-0.1l-0.7-0.3h-0.1l-0.6-0.3h-0.1l-0.6-0.3-0.1-0.1-0.5-0.4-0.1-0.1-0.4-0.3h-0.1q-0.2-0.2-0.3-0.4l-0.1-0.1q-0.2-0.2-0.3-0.4l-0.1-0.1q-0.1-0.1-0.2-0.3v-0.1q-0.1-0.2-0.2-0.4v-0.1q0-0.2-0.1-0.3v-0.2c0-0.1 0-0.2 0-0.3 0-0.1 0-0.4 0-0.5 0 0 0 0 0-0.1 0-0.1 0-0.4 0-0.5q0-0.1 0-0.3 0.2-0.8 0.7-1.4 0.4-0.7 1.1-1.1 0.6-0.5 1.4-0.6 0.8-0.2 1.6-0.1c5.9 0.5 16.8-2.2 16.8-2.2l14.7-13c-1.4-0.6-2.2-1.1-2.2-1.1 7-5.9-10.9-58.6-10.9-58.6-14.6-7-13.5-22.7-13.5-22.7l4.7-85.5 0.1-1.6q-0.3 0.1-0.7 0.1-0.3 0.1-0.7 0.1-0.3 0-0.7 0-0.4 0-0.7 0h-0.4c-1.4-9 3-25.5 7.7-39.8l-49.5-5.7c-32.6-10.3-11.9-26-11.9-26l3.9 3.7c-0.6-6.5 6.4-11.9 6.4-11.9l21.7 20.7c5.5 1.1 25.3-1.1 37.4-2.6 1-2.5 1.6-4 1.6-4 0 0 19.6-36.9 23.9-41.7q0.8-0.9 1.4-1.9 0.7-1 1.2-2 0.5-1.1 0.9-2.2 0.4-1.1 0.7-2.2 0.1-0.5 0.2-0.9 0.1-0.5 0.2-0.9 0.1-0.5 0.2-1 0-0.4 0.1-0.9c3.2-0.2 8.5-2.8 13.3-5.5q-0.3-1.5-0.8-2.9-0.4-1.5-1-2.9-0.5-1.4-1.1-2.7-0.7-1.4-1.4-2.7l-0.6-1.1c-3.1-0.7-6-1.9-8.5-3.7-2.6-1.9-4.7-4.2-6.4-6.9-1.6-2.7-2.6-5.7-3-8.8-0.4-3.1-0.2-6.3 0.7-9.3q-0.9 0.3-1.7 0.4-0.9 0-1.8-0.1-0.9-0.1-1.7-0.4-0.8-0.3-1.5-0.8-0.7-0.5-1.2-1.1-0.5-0.6-0.8-1.3-0.3-0.8-0.5-1.6-0.1-0.7-0.1-1.5 0-0.9 0.2-1.7 0.1-0.8 0.4-1.6 0.3-0.8 0.7-1.6 0.5-0.7 1-1.3 0.9-0.9 1.9-1.6 1-0.8 2-1.3 1.1-0.6 2.3-1 1.2-0.4 2.4-0.6c3.1-0.7 6.6-0.9 9.1-2.9 2.9-2.3 4.2-6.6 7.7-7.6q0.6-0.1 1.2-0.2 0.5 0 1.1 0 0.6 0.1 1.2 0.2 0.5 0.1 1.1 0.3 2.1 0.7 4.1 1.6 2 1 3.8 2.2 1.8 1.2 3.4 2.7 1.7 1.4 3.1 3.1 0.3 0.5 0.7 1 0.3 0.4 0.8 0.8 0.4 0.5 0.8 0.8 0.5 0.4 1 0.7 0.3 0.2 0.6 0.3 0.2 0.1 0.5 0.3 0.3 0.1 0.6 0.2 0.3 0.2 0.5 0.3 0.4 0.3 0.6 0.6 0.3 0.2 0.5 0.5 0.3 0.3 0.5 0.7 0.2 0.3 0.3 0.7 0.6 1.2 1.1 2.5 0.5 1.3 0.8 2.7 0.3 1.3 0.4 2.7 0.2 1.3 0.2 2.7 0 0.8-0.1 1.7 0 0.8-0.1 1.6-0.1 0.8-0.3 1.6-0.1 0.8-0.3 1.6c-0.9 3.2-2.5 6.3-3.4 9.5q-0.2 0.6-0.3 1.1-0.2 0.6-0.3 1.2-0.1 0.5-0.1 1.1-0.1 0.6-0.1 1.1 0 0.7 0.1 1.3 0.1 0.6 0.2 1.2 0.2 0.6 0.4 1.2 0.3 0.6 0.6 1.1l-0.3 0.1q0.2 0.3 0.3 0.5-0.5 0.2-1 0.2-0.6 0.1-1.1 0-0.5-0.1-1-0.4-0.5-0.2-0.9-0.6 0.2 1 0.4 2 0.2 1 0.4 1.9 0.3 1 0.6 2 0.2 0.9 0.6 1.9l5.2-0.8v7h0.3q0 0 0.1 0.1 0.1 0 0.1 0 0.1 0.1 0.1 0.1 0.1 0 0.1 0.1c2.3 1.6 5.1 8.9 7 14.6q0.6 1.8 1 3.6zm-124.8 57.5c3.1 0.6 10.9 0.2 19.2-0.6l-18.6-2.2q-3.1-0.9-5.5-2l4.9 4.7z"/>
	<path id="Layer" class="s8" d="m293.9 452.7l-59.7-6.9c-32-10.2-11.8-25.6-11.8-25.6l21.4 20.2c8 1.6 46.3-3.7 46.3-3.7z"/>
	<path id="Layer" class="s3" d="m293.9 452.7l-59.7-6.9c-32-10.2-11.8-25.6-11.8-25.6l21.4 20.2c8 1.6 46.3-3.7 46.3-3.7z"/>
	<path id="Layer" class="s26" d="m215 450.2l-82.9-23-18.5-207.3h203.1l-18.5 207.2z"/>
	<path id="Layer" class="s27" d="m215.1 432.5v-195.7h83l-15.8 177.1z"/>
	<path id="Layer" class="s22" d="m215.2 313.7v25.4h-56.9l-2.3-25.4zm-63.8-51.5h63.8v25.4h-61.4l-2.3-25.4zm63.7 144h-0.1l-52.1-14.5-3.6-39.9h25.6l1.8 20.2 28.3 7.7h0.1z"/>
	<path id="Layer" class="s23" d="m161.4 163.5h30.8v12.9h-17.9v12.8h17.9v12.9h-30.8zm37 0h30.8v11.2h-18v2.3h17.9v25.7h-30.8v-11.7h18v-2.3h-18v-25.2zm37 0h30.8v11.2h-18v2.3h17.9v25.7h-30.8v-11.7h18v-2.3h-18v-25.2z"/>
	<path id="Layer" class="s24" d="m274.1 313.6l-0.6 6.9-6 66.9-0.4 4.3-52.1 14.5v-26.5l28.3-7.7 3-33h-31.3v-25.4h33.5l2.3-26h-35.8v-25.4h63.7l-4.6 51.5z"/>
	<path id="Layer" class="s28" d="m323.7 653.1c12.8 9.6 8.6 26.7 8.6 26.7 0 0-44.3 3.2-58.1 2.1-13.9-1.1-11.2-10.7-5.4-10.1 5.9 0.5 16.5-2.2 16.5-2.2l18.7-16.5z"/>
	<path id="Layer" class="s3" d="m323.7 653.1c12.8 9.6 8.6 26.7 8.6 26.7 0 0-44.3 3.2-58.1 2.1-13.9-1.1-11.2-10.7-5.4-10.1 5.9 0.5 16.5-2.2 16.5-2.2l18.7-16.5z"/>
	<path id="Layer" class="s29" d="m332.9 674.3q0 0.9-0.1 1.8-0.1 0.9-0.2 1.9-0.2 0.9-0.3 1.8c0 0-44.3 3.2-58.1 2.1-8.2-0.6-10.7-4.2-10-7 0.5 2.4 3.3 4.9 10 5.4 13.8 1.1 57.9-1.6 58.1-2.1q0.1-0.7 0.2-1.5 0.1-0.7 0.2-1.4 0.1-0.7 0.2-1.4 0-0.8 0-1.5 0 0.9 0 1.9z"/>
	<path id="Layer" class="s8" d="m351.4 335.9c-4.2 16 4.3 31 4.3 31 0 0-26.7 23-22.4 11.8 4.3-11.2-7.5-27.8-7.5-27.8z"/>
	<path id="Layer" class="s28" d="m342.4 659.5c12.8 9.6 8.5 26.7 8.5 26.7 0 0-44.2 3.2-58.1 2.1-13.8-1.1-11.2-10.7-5.3-10.1 5.8 0.5 16.5-2.2 16.5-2.2l18.7-16.5z"/>
	<path id="Layer" class="s9" d="m328 655.8c-2.8 3.4-6.7 4.7-10.8 4.9-9.3 0.5-19.6-4.9-19.6-4.9 7-5.9-10.6-57.6-10.6-57.6-14.4-6.9-13.4-22.4-13.4-22.4l4.7-83.9 1.2-21 14.9-9.1 11.8 9 11.1 8.6q0.3 1 0.5 2 0.3 1 0.4 2.1 0.2 1 0.3 2.1 0.2 1 0.2 2.1c1.3 19.6-14.2 24.2-14.2 24.2 0 0 6.4 19.7 0.6 37.8-5.9 18.2 4.2 34.1 4.2 34.1 0 0 19.2 55.5 16 58.7-3.2 3.2 2.7 13.3 2.7 13.3z"/>
	<path id="Layer" class="s3" d="m328 655.8c-2.8 3.4-6.7 4.7-10.8 4.9-9.3 0.5-19.6-4.9-19.6-4.9 7-5.9-10.6-57.6-10.6-57.6-14.4-6.9-13.4-22.4-13.4-22.4l4.7-83.9 1.2-21 14.9-9.1 11.8 9 11.1 8.6q0.3 1 0.5 2 0.3 1 0.4 2.1 0.2 1 0.3 2.1 0.2 1 0.2 2.1c1.3 19.6-14.2 24.2-14.2 24.2 0 0 6.4 19.7 0.6 37.8-5.9 18.2 4.2 34.1 4.2 34.1 0 0 19.2 55.5 16 58.7-3.2 3.2 2.7 13.3 2.7 13.3z"/>
	<path id="Layer" class="s9" d="m346.6 662.2c-9 11.2-30.3 0-30.3 0q0.1-0.2 0.3-0.3 0.1-0.2 0.2-0.4 0.1-0.2 0.2-0.4 0.1-0.2 0.2-0.4c3.9-10.6-13.2-61.4-13.2-61.4-14.4-7-16-23.5-16-23.5l-3.8-85.4-0.5-11.1 22.5-8.5 6.9-2.6 22.9 17.6q0.4 1.3 0.7 2.7 0.2 1.4 0.4 2.8 0.2 1.4 0.3 2.8 0.1 1.4 0 2.8c-0.2 17.2-14.2 21.4-14.2 21.4 0 0 6.4 19.7 0.5 37.9-5.9 18.1 4.3 34 4.3 34 0 0 19.2 55.5 16 58.7-3.2 3.2 2.6 13.3 2.6 13.3z"/>
	<path id="Layer" class="s3" d="m337.4 496.9c-4.6-0.6-13.9-6.2-18.7-9.2-1.8-1.1-3-1.9-3-1.9 0 0-4.8-13.3-17.6-3.2q-1.5 1.3-3.2 2.4-1.6 1.1-3.4 2.1-1.7 1-3.6 1.8-1.8 0.9-3.7 1.6-0.7 0.2-1.4 0.4-0.8 0.2-1.5 0.4-0.7 0.2-1.5 0.4-0.7 0.1-1.5 0.2l1.2-21 14.9-9.1 11.8 9 6.9-2.6 22.9 17.6q0.4 1.3 0.7 2.7 0.2 1.4 0.4 2.8 0.2 1.4 0.3 2.8 0.1 1.4 0.1 2.8z"/>
	<path id="Layer" class="s30" d="m366.3 394.6c-1.9 11.5-6 35-10.6 55.4-6.4 28.3-13.3 21.9-16.5 28.8-3.2 6.9-0.5 16.5-0.5 16.5-5.4 0.6-23-11.2-23-11.2 0 0-4.8-13.3-17.6-3.2-12.7 10.2-22.9 9.6-22.9 9.6-2.7-17.6 17.1-64.5 17.1-64.5 0 0 19.2-36.2 23.4-41q0.8-0.8 1.4-1.8 0.6-1 1.2-2 0.5-1 0.9-2.1 0.4-1.1 0.7-2.2 0.1-0.4 0.2-0.9 0.1-0.4 0.2-0.9 0.1-0.4 0.1-0.9 0.1-0.4 0.1-0.9c7-0.5 24-12.3 24-12.3l13.4-2.1v6.9q0 0.1 0.1 0.1 0 0 0.1 0.1 0 0 0.1 0 0 0.1 0.1 0.1c2.2 1.7 5 8.8 6.9 14.4q0.5 1.7 0.9 3.5 0.4 1.7 0.5 3.5 0.1 1.8 0.1 3.6-0.1 1.8-0.4 3.5z"/>
	<path id="Layer" class="s8" d="m304 444.7l-6.9-0.8-52.8-6.1c-32-10.2-11.7-25.6-11.7-25.6l21.3 20.2c6.1 1.3 30.3-1.6 41.1-3 3.2-0.4 5.3-0.7 5.3-0.7z"/>
	<path id="Layer" class="s3" d="m355.6 406.9c0 0-33 41.5-38.3 40.5-5.4-1.1-19.8 0-19.8 0 2.2-3.2-2.1-19.2-2.1-19.2 0 0 4.8 5.8 25.6-30.4 20.8-36.2 34.7-25.1 34.7-25.1 17.1 10.7-0.1 34.2-0.1 34.2z"/>
	<path id="Layer" class="s3" d="m355.2 404.7c0 0-33.1 41.6-38.4 40.5-5.3-1-21.9-19.2-21.9-19.2 0 0 4.8 5.9 25.6-30.3 20.8-36.3 34.7-25.1 34.7-25.1 17 10.7 0 34.1 0 34.1z"/>
	<path id="Layer" class="s3" d="m297.1 443.9c0.2-3.9-1.3-10.9-2.1-14.5 3.2-0.4 5.3-0.7 5.3-0.7l3.7 16z"/>
	<path id="Layer" class="s30" d="m355.6 405.8c0 0-33 41.6-38.3 40.5-5.4-1.1-19.8 0-19.8 0 2.2-3.2-2.1-19.2-2.1-19.2 0 0 4.8 5.9 25.6-30.4 20.8-36.2 34.7-25 34.7-25 17.1 10.6-0.1 34.1-0.1 34.1z"/>
	<path id="Layer" class="s3" d="m348 345.3c-4.1 4.8-7.3 12-14.1 12q-0.6 0-1.2-0.1-0.5 0-1.1-0.1-0.6 0-1.1-0.1-0.6-0.1-1.1-0.2-0.4-0.6-0.7-1.2-0.4-0.7-0.8-1.3-0.3-0.6-0.7-1.2-0.4-0.6-0.8-1.2l25.6-14.9c-1.2 4.3-4.3 4.4-4 8.3z"/>
	<path id="Layer" class="s8" d="m333.3 356.2c-12.4 0-22.4-10-22.4-22.4 0-12.4 10-22.4 22.4-22.4 12.4 0 22.4 10 22.4 22.4 0 12.4-10 22.4-22.4 22.4z"/>
	<path id="Layer" class="s3" d="m305 315.7q0.9-0.8 1.8-1.6 1-0.7 2.1-1.2 1-0.6 2.2-1 1.1-0.4 2.3-0.6c3.1-0.6 6.5-0.8 9-2.8 2.8-2.3 4.1-6.6 7.5-7.5q0.6-0.1 1.2-0.2 0.5 0 1.1 0 0.6 0.1 1.1 0.2 0.6 0.1 1.1 0.3 2.1 0.7 4.1 1.6 1.9 0.9 3.7 2.1 1.8 1.2 3.4 2.6 1.6 1.5 3 3.2 0.3 0.4 0.7 0.9 0.3 0.4 0.7 0.8 0.4 0.4 0.9 0.8 0.4 0.4 0.9 0.7 0.3 0.1 0.6 0.3 0.3 0.1 0.6 0.2 0.2 0.2 0.5 0.3 0.3 0.1 0.6 0.3 0.3 0.2 0.5 0.5 0.3 0.3 0.5 0.6 0.2 0.3 0.4 0.6 0.2 0.3 0.4 0.7 0.9 1.9 1.5 3.9 0.6 2 0.8 4.1 0.2 2.1 0 4.1-0.2 2.1-0.7 4.2c-0.9 3.2-2.4 6.1-3.4 9.3-0.9 3.2-1.1 6.9 0.6 9.7-1.7 0.9-3.7-0.2-4.8-1.7-1-1.6-1.3-3.4-1.9-5.2q-0.3-1.3-0.9-2.5-0.6-1.3-1.3-2.4-0.8-1.1-1.6-2.2-0.9-1-1.9-1.9c-1.7-1.5-4.7-2.5-5.9-0.6-0.4 0.8-0.4 1.7-0.8 2.5-0.8 1.5-3 1.8-4.4 1q-0.5-0.4-1-0.8-0.4-0.5-0.8-1-0.3-0.5-0.6-1.1-0.3-0.6-0.4-1.2c-2.2-7.5-5.9-12.1-13.9-9-3 1.2-6.4 2-9.3 0-3.6-2.6-2.9-7.9-0.2-11z"/>
	<path id="Layer" class="s31" d="m305 315.2q0.9-0.9 1.8-1.6 1-0.7 2.1-1.3 1-0.5 2.2-0.9 1.1-0.4 2.3-0.6c3.1-0.7 6.5-0.9 9-2.9 2.8-2.2 4.1-6.5 7.5-7.5q0.6-0.1 1.2-0.1 0.5-0.1 1.1 0 0.6 0 1.1 0.2 0.6 0.1 1.1 0.3 2.1 0.6 4.1 1.5 1.9 1 3.7 2.2 1.8 1.1 3.4 2.6 1.6 1.4 3 3.1 0.3 0.5 0.7 0.9 0.3 0.5 0.7 0.9 0.4 0.4 0.9 0.8 0.4 0.3 0.9 0.7 0.3 0.1 0.6 0.2 0.3 0.1 0.6 0.3 0.2 0.1 0.5 0.3 0.3 0.1 0.6 0.3 0.3 0.2 0.5 0.5 0.3 0.2 0.5 0.5 0.2 0.3 0.4 0.7 0.2 0.3 0.4 0.6 0.9 1.9 1.5 3.9 0.6 2 0.8 4.1 0.2 2.1 0 4.2-0.2 2.1-0.7 4.1c-0.9 3.2-2.4 6.2-3.4 9.4-0.9 3.2-1.1 6.8 0.6 9.7-1.7 0.8-3.7-0.2-4.8-1.8-1-1.5-1.3-3.4-1.9-5.2q-0.3-1.2-0.9-2.5-0.6-1.2-1.3-2.3-0.8-1.2-1.6-2.2-0.9-1-1.9-2c-1.7-1.4-4.7-2.4-5.9-0.5-0.4 0.7-0.4 1.7-0.8 2.4-0.8 1.5-3 1.8-4.4 1q-0.5-0.3-1-0.8-0.4-0.4-0.8-1-0.3-0.5-0.6-1.1-0.3-0.5-0.4-1.2c-2.2-7.4-5.9-12.1-13.9-8.9-3 1.2-6.4 2-9.3 0-3.6-2.7-2.9-8-0.2-11z"/>
	<path id="Layer" class="s3" d="m358.3 366.1h-10.9c0 0-21.3 10.6-21.8 10.1-0.4-0.4-3.7 0.3-5.8 0.7q0.2-0.4 0.3-0.9 0.1-0.4 0.2-0.9 0-0.4 0.1-0.9 0.1-0.5 0.1-0.9c6.9-0.6 24-12.3 24-12.3l13.3-2.1v6.9q0.1 0 0.2 0.1 0 0 0.1 0 0 0.1 0.1 0.1 0 0 0.1 0.1z"/>
	<path id="Layer" class="s29" d="m351.6 680.7q-0.1 0.9-0.1 1.8-0.1 0.9-0.3 1.9-0.1 0.9-0.3 1.8c0 0-44.2 3.2-58.1 2.1-8.2-0.6-10.6-4.2-10-7 0.5 2.4 3.3 4.9 10 5.4 13.9 1.1 58-1.7 58.1-2.1q0.2-0.7 0.3-1.5 0.1-0.7 0.2-1.4 0.1-0.7 0.1-1.5 0.1-0.7 0.1-1.4 0 0.9 0 1.9z"/>
	<g id="Layer" style="opacity: .1">
		<path id="Layer" class="s11" d="m305.3 477.4q-1 0.3-1.9 0.6-0.9 0.4-1.8 0.8-0.8 0.5-1.7 1-0.8 0.6-1.5 1.2c-12.8 10.1-22.9 9.6-22.9 9.6-0.1-0.4-0.2-0.8-0.2-1.2 4.2-1 10.6-3.3 17.8-9 5.4-4.3 9.4-4.4 12.1-3z"/>
		<path id="Layer" class="s11" d="m366.4 383.9q0.3 1.8 0.5 3.6 0.1 1.8 0 3.6 0 1.8-0.3 3.5c-1.9 11.4-6 35-10.6 55.4-6.4 28.3-13.3 21.9-16.5 28.8-3.2 6.9-0.1 16.5-0.6 16.5q-0.7 0-1.4-0.1-0.7-0.1-1.4-0.3-0.7-0.2-1.4-0.4-0.7-0.3-1.3-0.6c-0.6-2.5-1.9-10 0.7-15.6 3.2-7 10.1-0.6 16.5-28.8 4.6-20.4 8.7-44 10.6-55.4q0.3-1.8 0.4-3.6 0.1-1.8-0.1-3.6-0.1-1.8-0.5-3.5-0.3-1.8-0.9-3.5c-1.9-5.6-4.1-12.2-6.3-13.8-0.1-0.1 4.3-0.3 4.3-0.3q0.1 0 0.1 0.1 0.1 0 0.1 0 0.1 0.1 0.1 0.1 0.1 0 0.1 0.1c2.2 1.7 5 8.8 6.9 14.4q0.6 1.7 1 3.4z"/>
	</g>
	<path id="Layer" class="s1" d="m425.3 481.8q-1.1 0.9-2.2 1.7-1.2 0.8-2.4 1.5-1.2 0.7-2.4 1.3h-14.6q-0.1-0.1-0.1-0.2 0-0.1-0.1-0.2 0-0.1-0.1-0.2 0-0.1-0.1-0.2-0.5-0.7-1-1.4-0.5-0.6-1.1-1.2-0.7-0.6-1.3-1.1-0.7-0.5-1.4-0.9c-2.4-1.6-5.1-3.1-6.8-5.4-1.7-2.3-2.3-5.9-0.3-8 1.6-1.7 4.2-2 6.6-1.9q0.5 0 1 0 0.5 0.1 1 0.2 0.5 0.1 1 0.3 0.5 0.2 1 0.5c2 1.2 2.6 3.9 2.6 6.2 0 2.3-0.4 4.7 0.1 7 0.1-6.4 1.5-13.4 6.7-17.1 1.6-1.2 4.1-1.8 5.5-0.3q0.2 0.2 0.3 0.4 0.2 0.3 0.3 0.5 0.1 0.3 0.2 0.5 0 0.3 0.1 0.6 0.2 1.3 0.2 2.7-0.1 1.3-0.5 2.6-0.5 1.3-1.2 2.4-0.8 1.2-1.8 2.1c2.7 0.4 4.9-1.6 6.9-3.3 2-1.8 4.7-3.5 7.1-2.5 2.2 0.8 3.2 3.6 2.7 5.9q-0.3 0.8-0.6 1.6-0.4 0.8-0.9 1.5-0.5 0.8-1.1 1.4-0.6 0.7-1.2 1.2-1.1 1-2.1 1.8z"/>
	<path id="Layer" class="s1" d="m451.4 670.2q-1.4 1.2-3 2.3-1.5 1-3.1 2-1.6 0.9-3.3 1.8h-19.9q0-0.2-0.1-0.3 0-0.2-0.1-0.3 0-0.1-0.1-0.3-0.1-0.1-0.2-0.2-0.6-1-1.3-1.9-0.7-0.8-1.6-1.6-0.8-0.8-1.7-1.5-0.9-0.7-1.9-1.3c-3.3-2.2-6.8-4.2-9.2-7.3-2.3-3.2-3-8-0.3-10.9 2.1-2.3 5.7-2.7 8.8-2.5q0.7-0.1 1.5 0 0.7 0.1 1.4 0.2 0.6 0.2 1.3 0.5 0.7 0.2 1.3 0.5c2.7 1.8 3.6 5.3 3.6 8.5 0 3.2-0.6 6.4 0.1 9.5 0.1-8.6 2.1-18.1 9.1-23.1 2.2-1.6 5.5-2.5 7.4-0.5q0.2 0.3 0.4 0.6 0.2 0.4 0.4 0.7 0.1 0.3 0.2 0.7 0.1 0.4 0.2 0.7 0.4 1.8 0.2 3.7-0.1 1.8-0.6 3.6-0.6 1.7-1.6 3.3-1 1.5-2.4 2.7c3.5 0.5 6.6-2.1 9.3-4.5 2.7-2.3 6.3-4.6 9.6-3.3 3 1.1 4.4 4.9 3.7 8-0.7 3.1-2.9 5.6-5.2 7.8q-1.4 1.3-2.9 2.4z"/>
</svg>